<mxfile host="Electron" modified="2024-03-05T07:50:31.108Z" agent="Mozilla/5.0 (Windows NT 10.0; Win64; x64) AppleWebKit/537.36 (KHTML, like Gecko) draw.io/23.1.5 Chrome/120.0.6099.109 Electron/28.1.0 Safari/537.36" etag="8e7ZMK4cCHr5z9m0ufhU" version="23.1.5" type="device">
  <diagram name="Halaman-1" id="LNWpexIPef4W91aiMVyu">
    <mxGraphModel dx="1434" dy="836" grid="1" gridSize="10" guides="1" tooltips="1" connect="1" arrows="1" fold="1" page="1" pageScale="1" pageWidth="850" pageHeight="1100" math="0" shadow="0">
      <root>
        <mxCell id="0" />
        <mxCell id="1" parent="0" />
        <mxCell id="htoHoAhOGcQknfIUc9bV-1" style="edgeStyle=orthogonalEdgeStyle;rounded=0;orthogonalLoop=1;jettySize=auto;html=1;exitX=0.5;exitY=1;exitDx=0;exitDy=0;" parent="1" source="htoHoAhOGcQknfIUc9bV-2" target="htoHoAhOGcQknfIUc9bV-4" edge="1">
          <mxGeometry relative="1" as="geometry" />
        </mxCell>
        <mxCell id="htoHoAhOGcQknfIUc9bV-2" value="START" style="ellipse;whiteSpace=wrap;html=1;" parent="1" vertex="1">
          <mxGeometry x="432.5" y="120" width="120" height="80" as="geometry" />
        </mxCell>
        <mxCell id="htoHoAhOGcQknfIUc9bV-3" style="edgeStyle=orthogonalEdgeStyle;rounded=0;orthogonalLoop=1;jettySize=auto;html=1;" parent="1" source="htoHoAhOGcQknfIUc9bV-4" target="htoHoAhOGcQknfIUc9bV-7" edge="1">
          <mxGeometry relative="1" as="geometry" />
        </mxCell>
        <mxCell id="htoHoAhOGcQknfIUc9bV-4" value="INPUT &lt;br&gt;username=$username;&lt;br&gt;password=$password;" style="shape=parallelogram;perimeter=parallelogramPerimeter;whiteSpace=wrap;html=1;fixedSize=1;" parent="1" vertex="1">
          <mxGeometry x="392.5" y="240" width="200" height="80" as="geometry" />
        </mxCell>
        <mxCell id="htoHoAhOGcQknfIUc9bV-5" style="edgeStyle=orthogonalEdgeStyle;rounded=0;orthogonalLoop=1;jettySize=auto;html=1;" parent="1" target="htoHoAhOGcQknfIUc9bV-12" edge="1">
          <mxGeometry relative="1" as="geometry">
            <mxPoint x="492.5" y="520" as="sourcePoint" />
          </mxGeometry>
        </mxCell>
        <mxCell id="htoHoAhOGcQknfIUc9bV-6" style="edgeStyle=orthogonalEdgeStyle;rounded=0;orthogonalLoop=1;jettySize=auto;html=1;" parent="1" source="htoHoAhOGcQknfIUc9bV-7" target="htoHoAhOGcQknfIUc9bV-48" edge="1">
          <mxGeometry relative="1" as="geometry" />
        </mxCell>
        <mxCell id="htoHoAhOGcQknfIUc9bV-7" value="action=&quot;check.php&quot; method=&quot;post&quot;" style="rounded=0;whiteSpace=wrap;html=1;" parent="1" vertex="1">
          <mxGeometry x="432.5" y="360" width="120" height="60" as="geometry" />
        </mxCell>
        <mxCell id="htoHoAhOGcQknfIUc9bV-8" style="edgeStyle=orthogonalEdgeStyle;rounded=0;orthogonalLoop=1;jettySize=auto;html=1;" parent="1" source="htoHoAhOGcQknfIUc9bV-12" target="htoHoAhOGcQknfIUc9bV-14" edge="1">
          <mxGeometry relative="1" as="geometry">
            <mxPoint x="262.5" y="600" as="targetPoint" />
          </mxGeometry>
        </mxCell>
        <mxCell id="htoHoAhOGcQknfIUc9bV-9" value="YES" style="edgeLabel;html=1;align=center;verticalAlign=middle;resizable=0;points=[];" parent="htoHoAhOGcQknfIUc9bV-8" vertex="1" connectable="0">
          <mxGeometry x="0.0233" y="-2" relative="1" as="geometry">
            <mxPoint x="68" y="31" as="offset" />
          </mxGeometry>
        </mxCell>
        <mxCell id="htoHoAhOGcQknfIUc9bV-10" style="edgeStyle=orthogonalEdgeStyle;rounded=0;orthogonalLoop=1;jettySize=auto;html=1;" parent="1" source="htoHoAhOGcQknfIUc9bV-12" target="htoHoAhOGcQknfIUc9bV-16" edge="1">
          <mxGeometry relative="1" as="geometry" />
        </mxCell>
        <mxCell id="htoHoAhOGcQknfIUc9bV-11" value="NO" style="edgeLabel;html=1;align=center;verticalAlign=middle;resizable=0;points=[];" parent="htoHoAhOGcQknfIUc9bV-10" vertex="1" connectable="0">
          <mxGeometry x="-0.4" y="2" relative="1" as="geometry">
            <mxPoint x="-2" y="8" as="offset" />
          </mxGeometry>
        </mxCell>
        <mxCell id="htoHoAhOGcQknfIUc9bV-12" value="if &lt;br&gt;$_SESSION != ORANGTUA&lt;div&gt;&lt;br&gt;&lt;/div&gt;" style="rhombus;whiteSpace=wrap;html=1;" parent="1" vertex="1">
          <mxGeometry x="392.5" y="560" width="200" height="90" as="geometry" />
        </mxCell>
        <mxCell id="htoHoAhOGcQknfIUc9bV-13" style="edgeStyle=orthogonalEdgeStyle;rounded=0;orthogonalLoop=1;jettySize=auto;html=1;entryX=0;entryY=0.5;entryDx=0;entryDy=0;exitX=0.5;exitY=0;exitDx=0;exitDy=0;" parent="1" source="htoHoAhOGcQknfIUc9bV-14" target="htoHoAhOGcQknfIUc9bV-4" edge="1">
          <mxGeometry relative="1" as="geometry">
            <Array as="points">
              <mxPoint x="262.5" y="270" />
            </Array>
          </mxGeometry>
        </mxCell>
        <mxCell id="htoHoAhOGcQknfIUc9bV-14" value="alert(&quot;username atau password salah&quot;)" style="rounded=0;whiteSpace=wrap;html=1;" parent="1" vertex="1">
          <mxGeometry x="202.5" y="360" width="120" height="60" as="geometry" />
        </mxCell>
        <mxCell id="htoHoAhOGcQknfIUc9bV-15" style="edgeStyle=orthogonalEdgeStyle;rounded=0;orthogonalLoop=1;jettySize=auto;html=1;" parent="1" source="htoHoAhOGcQknfIUc9bV-16" target="htoHoAhOGcQknfIUc9bV-17" edge="1">
          <mxGeometry relative="1" as="geometry" />
        </mxCell>
        <mxCell id="htoHoAhOGcQknfIUc9bV-16" value="header(&quot;location:orangtua/dashboard.php&quot;);" style="shape=parallelogram;perimeter=parallelogramPerimeter;whiteSpace=wrap;html=1;fixedSize=1;" parent="1" vertex="1">
          <mxGeometry x="347.5" y="700" width="290" height="60" as="geometry" />
        </mxCell>
        <mxCell id="htoHoAhOGcQknfIUc9bV-17" value="END" style="ellipse;whiteSpace=wrap;html=1;" parent="1" vertex="1">
          <mxGeometry x="432.5" y="820" width="120" height="80" as="geometry" />
        </mxCell>
        <mxCell id="htoHoAhOGcQknfIUc9bV-34" value="&lt;font style=&quot;font-size: 22px;&quot;&gt;FLOWCHART ORANG TUA&lt;/font&gt;" style="text;html=1;align=center;verticalAlign=middle;whiteSpace=wrap;rounded=0;fontStyle=1" parent="1" vertex="1">
          <mxGeometry x="710" y="40" width="290" height="30" as="geometry" />
        </mxCell>
        <mxCell id="htoHoAhOGcQknfIUc9bV-48" value="DATABASE" style="strokeWidth=2;html=1;shape=mxgraph.flowchart.database;whiteSpace=wrap;" parent="1" vertex="1">
          <mxGeometry x="437.5" y="460" width="110" height="60" as="geometry" />
        </mxCell>
        <mxCell id="htoHoAhOGcQknfIUc9bV-107" style="edgeStyle=orthogonalEdgeStyle;rounded=0;orthogonalLoop=1;jettySize=auto;html=1;" parent="1" source="htoHoAhOGcQknfIUc9bV-108" target="htoHoAhOGcQknfIUc9bV-110" edge="1">
          <mxGeometry relative="1" as="geometry" />
        </mxCell>
        <mxCell id="htoHoAhOGcQknfIUc9bV-108" value="START" style="ellipse;whiteSpace=wrap;html=1;" parent="1" vertex="1">
          <mxGeometry x="395" y="1320" width="120" height="80" as="geometry" />
        </mxCell>
        <mxCell id="htoHoAhOGcQknfIUc9bV-109" style="edgeStyle=orthogonalEdgeStyle;rounded=0;orthogonalLoop=1;jettySize=auto;html=1;" parent="1" source="htoHoAhOGcQknfIUc9bV-110" target="htoHoAhOGcQknfIUc9bV-112" edge="1">
          <mxGeometry relative="1" as="geometry" />
        </mxCell>
        <mxCell id="htoHoAhOGcQknfIUc9bV-110" value="&lt;br&gt;KLIK LOGOUT" style="shape=manualInput;whiteSpace=wrap;html=1;" parent="1" vertex="1">
          <mxGeometry x="382.5" y="1430" width="145" height="80" as="geometry" />
        </mxCell>
        <mxCell id="htoHoAhOGcQknfIUc9bV-111" style="edgeStyle=orthogonalEdgeStyle;rounded=0;orthogonalLoop=1;jettySize=auto;html=1;" parent="1" source="htoHoAhOGcQknfIUc9bV-112" target="htoHoAhOGcQknfIUc9bV-114" edge="1">
          <mxGeometry relative="1" as="geometry" />
        </mxCell>
        <mxCell id="htoHoAhOGcQknfIUc9bV-112" value="session_start();&lt;br&gt;session_unset();&lt;br&gt;session_destroy();" style="rounded=0;whiteSpace=wrap;html=1;" parent="1" vertex="1">
          <mxGeometry x="385.25" y="1550" width="139.5" height="60" as="geometry" />
        </mxCell>
        <mxCell id="htoHoAhOGcQknfIUc9bV-113" style="edgeStyle=orthogonalEdgeStyle;rounded=0;orthogonalLoop=1;jettySize=auto;html=1;" parent="1" source="htoHoAhOGcQknfIUc9bV-114" target="htoHoAhOGcQknfIUc9bV-115" edge="1">
          <mxGeometry relative="1" as="geometry" />
        </mxCell>
        <mxCell id="htoHoAhOGcQknfIUc9bV-114" value="header(&quot;location:index.php&quot;);" style="shape=parallelogram;perimeter=parallelogramPerimeter;whiteSpace=wrap;html=1;fixedSize=1;" parent="1" vertex="1">
          <mxGeometry x="347.5" y="1650" width="215" height="60" as="geometry" />
        </mxCell>
        <mxCell id="htoHoAhOGcQknfIUc9bV-115" value="END" style="ellipse;whiteSpace=wrap;html=1;" parent="1" vertex="1">
          <mxGeometry x="395" y="1750" width="120" height="80" as="geometry" />
        </mxCell>
        <mxCell id="htoHoAhOGcQknfIUc9bV-116" value="LOGOUT" style="text;html=1;align=center;verticalAlign=middle;whiteSpace=wrap;rounded=0;" parent="1" vertex="1">
          <mxGeometry x="288" y="1340" width="60" height="30" as="geometry" />
        </mxCell>
        <mxCell id="htoHoAhOGcQknfIUc9bV-120" value="LOGIN" style="text;html=1;align=center;verticalAlign=middle;whiteSpace=wrap;rounded=0;" parent="1" vertex="1">
          <mxGeometry x="323" y="146" width="60" height="30" as="geometry" />
        </mxCell>
        <mxCell id="htoHoAhOGcQknfIUc9bV-131" style="edgeStyle=orthogonalEdgeStyle;rounded=0;orthogonalLoop=1;jettySize=auto;html=1;" parent="1" source="htoHoAhOGcQknfIUc9bV-132" target="htoHoAhOGcQknfIUc9bV-134" edge="1">
          <mxGeometry relative="1" as="geometry" />
        </mxCell>
        <mxCell id="htoHoAhOGcQknfIUc9bV-132" value="START" style="ellipse;whiteSpace=wrap;html=1;" parent="1" vertex="1">
          <mxGeometry x="1237.5" y="1260" width="120" height="80" as="geometry" />
        </mxCell>
        <mxCell id="htoHoAhOGcQknfIUc9bV-133" style="edgeStyle=orthogonalEdgeStyle;rounded=0;orthogonalLoop=1;jettySize=auto;html=1;entryX=0.5;entryY=0.369;entryDx=0;entryDy=0;entryPerimeter=0;" parent="1" source="htoHoAhOGcQknfIUc9bV-134" target="htoHoAhOGcQknfIUc9bV-138" edge="1">
          <mxGeometry relative="1" as="geometry" />
        </mxCell>
        <mxCell id="htoHoAhOGcQknfIUc9bV-134" value="SELECT * FROM datasiswa" style="shape=process;whiteSpace=wrap;html=1;backgroundOutline=1;" parent="1" vertex="1">
          <mxGeometry x="1237.5" y="1390" width="120" height="60" as="geometry" />
        </mxCell>
        <mxCell id="htoHoAhOGcQknfIUc9bV-135" style="edgeStyle=orthogonalEdgeStyle;rounded=0;orthogonalLoop=1;jettySize=auto;html=1;" parent="1" source="htoHoAhOGcQknfIUc9bV-136" target="htoHoAhOGcQknfIUc9bV-139" edge="1">
          <mxGeometry relative="1" as="geometry">
            <mxPoint x="1497.5" y="1760" as="targetPoint" />
          </mxGeometry>
        </mxCell>
        <mxCell id="htoHoAhOGcQknfIUc9bV-136" value="show table datasiswa" style="shape=parallelogram;perimeter=parallelogramPerimeter;whiteSpace=wrap;html=1;fixedSize=1;" parent="1" vertex="1">
          <mxGeometry x="1207.5" y="1610" width="180" height="60" as="geometry" />
        </mxCell>
        <mxCell id="htoHoAhOGcQknfIUc9bV-137" style="edgeStyle=orthogonalEdgeStyle;rounded=0;orthogonalLoop=1;jettySize=auto;html=1;" parent="1" source="htoHoAhOGcQknfIUc9bV-138" target="htoHoAhOGcQknfIUc9bV-136" edge="1">
          <mxGeometry relative="1" as="geometry" />
        </mxCell>
        <mxCell id="htoHoAhOGcQknfIUc9bV-138" value="DATABASE" style="strokeWidth=2;html=1;shape=mxgraph.flowchart.database;whiteSpace=wrap;" parent="1" vertex="1">
          <mxGeometry x="1242.5" y="1500" width="110" height="60" as="geometry" />
        </mxCell>
        <mxCell id="htoHoAhOGcQknfIUc9bV-139" value="END" style="ellipse;whiteSpace=wrap;html=1;" parent="1" vertex="1">
          <mxGeometry x="1237.5" y="1720" width="120" height="80" as="geometry" />
        </mxCell>
        <mxCell id="htoHoAhOGcQknfIUc9bV-140" value="show table datasiswa" style="text;html=1;align=center;verticalAlign=middle;whiteSpace=wrap;rounded=0;" parent="1" vertex="1">
          <mxGeometry x="1152.5" y="1285" width="60" height="30" as="geometry" />
        </mxCell>
        <mxCell id="htoHoAhOGcQknfIUc9bV-141" style="edgeStyle=orthogonalEdgeStyle;rounded=0;orthogonalLoop=1;jettySize=auto;html=1;" parent="1" source="htoHoAhOGcQknfIUc9bV-142" target="htoHoAhOGcQknfIUc9bV-144" edge="1">
          <mxGeometry relative="1" as="geometry" />
        </mxCell>
        <mxCell id="htoHoAhOGcQknfIUc9bV-142" value="START" style="ellipse;whiteSpace=wrap;html=1;" parent="1" vertex="1">
          <mxGeometry x="1265" y="120" width="120" height="80" as="geometry" />
        </mxCell>
        <mxCell id="htoHoAhOGcQknfIUc9bV-143" style="edgeStyle=orthogonalEdgeStyle;rounded=0;orthogonalLoop=1;jettySize=auto;html=1;entryX=0.5;entryY=0.369;entryDx=0;entryDy=0;entryPerimeter=0;" parent="1" source="htoHoAhOGcQknfIUc9bV-144" target="htoHoAhOGcQknfIUc9bV-148" edge="1">
          <mxGeometry relative="1" as="geometry" />
        </mxCell>
        <mxCell id="htoHoAhOGcQknfIUc9bV-144" value="SELECT * FROM dataguru" style="shape=process;whiteSpace=wrap;html=1;backgroundOutline=1;" parent="1" vertex="1">
          <mxGeometry x="1265" y="250" width="120" height="60" as="geometry" />
        </mxCell>
        <mxCell id="htoHoAhOGcQknfIUc9bV-145" style="edgeStyle=orthogonalEdgeStyle;rounded=0;orthogonalLoop=1;jettySize=auto;html=1;" parent="1" source="htoHoAhOGcQknfIUc9bV-146" target="htoHoAhOGcQknfIUc9bV-149" edge="1">
          <mxGeometry relative="1" as="geometry">
            <mxPoint x="1525" y="620" as="targetPoint" />
          </mxGeometry>
        </mxCell>
        <mxCell id="htoHoAhOGcQknfIUc9bV-146" value="show table dataguru" style="shape=parallelogram;perimeter=parallelogramPerimeter;whiteSpace=wrap;html=1;fixedSize=1;" parent="1" vertex="1">
          <mxGeometry x="1235" y="470" width="180" height="60" as="geometry" />
        </mxCell>
        <mxCell id="htoHoAhOGcQknfIUc9bV-147" style="edgeStyle=orthogonalEdgeStyle;rounded=0;orthogonalLoop=1;jettySize=auto;html=1;" parent="1" source="htoHoAhOGcQknfIUc9bV-148" target="htoHoAhOGcQknfIUc9bV-146" edge="1">
          <mxGeometry relative="1" as="geometry" />
        </mxCell>
        <mxCell id="htoHoAhOGcQknfIUc9bV-148" value="DATABASE" style="strokeWidth=2;html=1;shape=mxgraph.flowchart.database;whiteSpace=wrap;" parent="1" vertex="1">
          <mxGeometry x="1270" y="360" width="110" height="60" as="geometry" />
        </mxCell>
        <mxCell id="htoHoAhOGcQknfIUc9bV-149" value="END" style="ellipse;whiteSpace=wrap;html=1;" parent="1" vertex="1">
          <mxGeometry x="1265" y="580" width="120" height="80" as="geometry" />
        </mxCell>
        <mxCell id="htoHoAhOGcQknfIUc9bV-150" value="show table dataguru" style="text;html=1;align=center;verticalAlign=middle;whiteSpace=wrap;rounded=0;" parent="1" vertex="1">
          <mxGeometry x="1180" y="145" width="60" height="30" as="geometry" />
        </mxCell>
      </root>
    </mxGraphModel>
  </diagram>
</mxfile>
